# xmcd CD database file
#
# Track frame offsets:
#	150
#	18554
#	36385
#	52074
#	67959
#	85962
#	104763
#	133864
#	150964
#	173187
#	202100
#	216443
#	239332
#	254567
#	279168
#
# Disc length: 4025 seconds
#
# Revision: 1
# Processed by: cddbd v1.5.2PL0 Copyright (c) Steve Scherf et al.
# Submitted via: CDex 1.70beta2
#
DISCID=e30fb70f
DTITLE=Чи-Ли - Лето. Преступление
DYEAR=2007
DGENRE=Pop
TTITLE0=Сердце
TTITLE1=Лето
TTITLE2=Радиоволна Fresh&Magestic remix
TTITLE3=Новый год в постели (new version)
TTITLE4=Преступление Beat stream remix
TTITLE5=Созвездие кошки Fresh&Magestic remix
TTITLE6=Лето DJ Jeff
TTITLE7=Странная любовь
TTITLE8=Туда же и ты Лебедев ТВ. remix
TTITLE9=Сердце DJ Jeff
TTITLE10=Маки (video clip version)
TTITLE11=Омут La Track remix
TTITLE12=Преступление
TTITLE13=Туда же и ты La Track remix
TTITLE14=Видеоклип "Сердце"
EXTD=YEAR: 2007
EXTT0=
EXTT1=
EXTT2=
EXTT3=
EXTT4=
EXTT5=
EXTT6=
EXTT7=
EXTT8=
EXTT9=
EXTT10=
EXTT11=
EXTT12=
EXTT13=
EXTT14=
PLAYORDER=
